<?xml version="1.0" encoding="UTF-8" standalone="no"?>
<!DOCTYPE svg PUBLIC "-//W3C//DTD SVG 1.1//EN" "http://www.w3.org/Graphics/SVG/1.1/DTD/svg11.dtd">
<svg width="30" height="35" viewBox="0 0 225 200" version="1.1" xmlns="http://www.w3.org/2000/svg" xmlns:xlink="http://www.w3.org/1999/xlink" xml:space="preserve" style="fill-rule:evenodd;clip-rule:evenodd;stroke-miterlimit:1.41421;">
        <path d="m146.5,192.47c-0.55,-0.2 -2.87,-0.85 -5.15,-1.43 -4.82,-1.24 -6.06,-3.34 -3.49,-5.91 1.53,-1.53 2.67,-1.7 7.23,-1.05 2.97,0.42 7.49,0.8 10.04,0.84 5.69,0.09 7.7,1.96 6.04,5.6 -1.03,2.26 -1.66,2.46 -7.4,2.39 -3.45,-0.04 -6.72,-0.24 -7.27,-0.45zM166.61,183.25c-14.95,-23.04 -27.39,-47.45 -29.72,-58.3 -2.77,-12.93 5.61,-27.67 19.8,-34.82 14.62,-7.37 35.47,-4.01 47.06,7.58 8.99,8.99 11.59,21.14 7.24,33.79 -3.69,10.71 -15.99,33.59 -28.65,53.25 -3.82,5.93 -5.89,8.25 -7.36,8.25 -1.5,0 -3.76,-2.64 -8.38,-9.75zM184.51,137.14c4.58,-2.08 10.16,-7.97 11.1,-11.71 1.22,-4.85 -0.17,-12.17 -3.01,-15.89 -8.07,-10.58 -26.25,-10.86 -34.94,-0.53 -10.29,12.23 -0.02,29.95 17.35,29.95 3.19,0 7.19,-0.77 9.51,-1.82zM119.89,183.14C114.69,179.85 109,173.37 109,170.75c0,-0.99 1.19,-2.33 2.64,-3 2.45,-1.12 2.9,-0.92 6.25,2.82 1.99,2.21 5.3,5.29 7.36,6.84 4.12,3.1 4.8,5.95 1.82,7.55 -2.5,1.34 -1.99,1.47 -7.18,-1.82zM105.12,159.24c-1.61,-1.36 -2.26,-3.58 -2.96,-10.24 -0.97,-9.21 -0.43,-11 3.33,-11 1.24,0 2.68,0.56 3.2,1.25 1.15,1.52 3.48,17.66 2.73,18.87 -1.43,2.32 -4.27,2.82 -6.3,1.11zM101.25,128.75c-1.32,-1.67 -3.65,-17.27 -2.88,-19.29 0.42,-1.11 1.6,-1.5 3.85,-1.28 3.05,0.3 3.31,0.64 4.46,5.81 1.51,6.76 1.91,13.22 0.93,14.81 -0.97,1.57 -5.11,1.53 -6.36,-0.06zM91.31,98.67c-1.01,-1.28 -4.21,-4.04 -7.12,-6.13 -3.94,-2.83 -5.22,-4.34 -4.99,-5.92 0.73,-5.11 11.02,-1.69 17.67,5.88 3.39,3.86 3.81,5.43 1.94,7.3 -1.93,1.93 -5.51,1.39 -7.49,-1.13zM58.71,86.09C54.29,85.71 51.6,84.98 50.98,84c-1.4,-2.22 -1.22,-2.8 1.41,-4.52 1.87,-1.23 3.86,-1.42 9.25,-0.89C69.08,79.33 71,80.25 71,83.09c0,1.75 -2.93,4.09 -4.68,3.76 -0.45,-0.09 -3.87,-0.42 -7.6,-0.75zM30.21,79.25C16.41,60.54 7.03,43.04 7.02,36 7.02,31.37 10.87,23.28 15.09,19.06 23.3,10.85 37.38,7.9 48.45,12.06 55.84,14.83 63.29,21.58 65.58,27.56 68.06,34.06 67.16,42.19 63.04,50.57 59.37,58.02 45.72,78.88 41.66,83.25c-3.95,4.24 -5.86,3.57 -11.44,-4zM43.33,46.64C52.02,43.01 52.32,31.25 43.84,26.92 37.67,23.77 32.03,24.71 27.46,29.64c-2.94,3.18 -3.35,9.65 -0.83,13.24 3.23,4.62 10.65,6.29 16.7,3.76z"/>
</svg>
